<svg width="18" height="32" viewBox="0 0 18 32" fill="none" xmlns="http://www.w3.org/2000/svg">
<path d="M5.15938 18.08C5.03938 18.08 2.39937 18.08 1.19938 18.08C0.559375 18.08 0.359375 17.84 0.359375 17.24C0.359375 15.64 0.359375 14 0.359375 12.4C0.359375 11.76 0.599375 11.56 1.19938 11.56H5.15938C5.15938 11.44 5.15938 9.12004 5.15938 8.04004C5.15938 6.44004 5.43937 4.92004 6.23937 3.52004C7.07937 2.08004 8.27937 1.12004 9.79937 0.560039C10.7994 0.200039 11.7994 0.0400391 12.8794 0.0400391H16.7994C17.3594 0.0400391 17.5994 0.280039 17.5994 0.840039V5.40004C17.5994 5.96004 17.3594 6.20004 16.7994 6.20004C15.7194 6.20004 14.6394 6.20004 13.5594 6.24004C12.4794 6.24004 11.9194 6.76004 11.9194 7.88004C11.8794 9.08004 11.9194 10.24 11.9194 11.48H16.5594C17.1994 11.48 17.4394 11.72 17.4394 12.36V17.2C17.4394 17.84 17.2394 18.04 16.5594 18.04C15.1194 18.04 12.0394 18.04 11.9194 18.04V31.08C11.9194 31.76 11.7194 32 10.9994 32C9.31938 32 7.67937 32 5.99937 32C5.39937 32 5.15938 31.76 5.15938 31.16C5.15938 26.96 5.15938 18.2 5.15938 18.08Z" fill="white"/>
</svg>
