<svg width="34" height="34" viewBox="0 0 34 34" fill="none" xmlns="http://www.w3.org/2000/svg">
<g clip-path="url(#clip0_94_8128)">
<path d="M33.9675 9.99609C33.8879 8.18954 33.5957 6.94755 33.1772 5.87136C32.7455 4.729 32.0813 3.70624 31.2111 2.85603C30.3609 1.99258 29.3314 1.32164 28.2023 0.896659C27.1199 0.478167 25.8844 0.186026 24.0778 0.106375C22.2578 0.0199776 21.68 0 17.0639 0C12.4477 0 11.8699 0.0199776 10.0566 0.0996288C8.25008 0.17928 7.0081 0.47168 5.93216 0.889914C4.78954 1.32164 3.76679 1.98583 2.91657 2.85603C2.05312 3.70624 1.38244 4.73574 0.957206 5.86487C0.538713 6.94755 0.246572 8.1828 0.166921 9.98935C0.0805245 11.8094 0.0605469 12.3872 0.0605469 17.0033C0.0605469 21.6195 0.0805245 22.1973 0.160176 24.0105C0.239827 25.8171 0.532227 27.0591 0.950719 28.1353C1.38244 29.2776 2.05312 30.3004 2.91657 31.1506C3.76679 32.0141 4.79629 32.685 5.92541 33.11C7.0081 33.5285 8.24334 33.8206 10.0501 33.9003C11.8632 33.9802 12.4412 33.9999 17.0574 33.9999C21.6735 33.9999 22.2513 33.9802 24.0646 33.9003C25.8711 33.8206 27.1131 33.5285 28.1891 33.11C30.474 32.2266 32.2806 30.42 33.164 28.1353C33.5822 27.0526 33.8746 25.8171 33.9543 24.0105C34.034 22.1973 34.0539 21.6195 34.0539 17.0033C34.0539 12.3872 34.0472 11.8094 33.9675 9.99609ZM30.9058 23.8777C30.8326 25.5382 30.5537 26.4349 30.3212 27.0326C29.7499 28.5138 28.5743 29.6894 27.0931 30.2607C26.4954 30.4932 25.5922 30.7721 23.9382 30.845C22.1449 30.9249 21.6071 30.9446 17.0706 30.9446C12.5341 30.9446 11.9895 30.9249 10.2027 30.845C8.54222 30.7721 7.64556 30.4932 7.04779 30.2607C6.31069 29.9883 5.63976 29.5566 5.09517 28.992C4.53061 28.4407 4.09888 27.7765 3.82646 27.0394C3.59399 26.4416 3.31509 25.5382 3.24218 23.8845C3.16227 22.0911 3.14255 21.553 3.14255 17.0166C3.14255 12.4801 3.16227 11.9355 3.24218 10.1489C3.31509 8.48843 3.59399 7.59177 3.82646 6.994C4.09888 6.25664 4.53061 5.58596 5.10192 5.04112C5.65299 4.47655 6.31718 4.04483 7.05454 3.77266C7.65231 3.5402 8.55571 3.26129 10.2094 3.18812C12.0028 3.10847 12.5409 3.08849 17.0771 3.08849C21.6203 3.08849 22.1582 3.10847 23.945 3.18812C25.6055 3.26129 26.5021 3.5402 27.0999 3.77266C27.837 4.04483 28.5079 4.47655 29.0525 5.04112C29.6171 5.59245 30.0488 6.25664 30.3212 6.994C30.5537 7.59177 30.8326 8.49492 30.9058 10.1489C30.9854 11.9422 31.0054 12.4801 31.0054 17.0166C31.0054 21.553 30.9854 22.0844 30.9058 23.8777Z" fill="white"/>
<path d="M17.0622 8.26904C12.2404 8.26904 8.32812 12.181 8.32812 17.0032C8.32812 21.8253 12.2404 25.7373 17.0622 25.7373C21.8844 25.7373 25.7964 21.8253 25.7964 17.0032C25.7964 12.181 21.8844 8.26904 17.0622 8.26904ZM17.0622 22.6688C13.9341 22.6688 11.3966 20.1316 11.3966 17.0032C11.3966 13.8747 13.9341 11.3376 17.0622 11.3376C20.1907 11.3376 22.7278 13.8747 22.7278 17.0032C22.7278 20.1316 20.1907 22.6688 17.0622 22.6688Z" fill="white"/>
<path d="M28.1818 7.92379C28.1818 9.0498 27.2688 9.96281 26.1425 9.96281C25.0165 9.96281 24.1035 9.0498 24.1035 7.92379C24.1035 6.79751 25.0165 5.88477 26.1425 5.88477C27.2688 5.88477 28.1818 6.79751 28.1818 7.92379Z" fill="white"/>
</g>
<defs>
<clipPath id="clip0_94_8128">
<rect width="34" height="34" fill="white"/>
</clipPath>
</defs>
</svg>
