<svg width="31" height="35" viewBox="0 0 31 35" fill="none" xmlns="http://www.w3.org/2000/svg">
<path d="M30.8348 8.77685C28.8373 8.77685 26.9943 8.11513 25.5144 6.99883C23.817 5.71914 22.5975 3.84199 22.1668 1.67842C22.0602 1.14385 22.0027 0.592187 21.9973 0.0268555H16.2913V15.6183L16.2845 24.1584C16.2845 26.4416 14.7977 28.3775 12.7366 29.0584C12.1385 29.2559 11.4925 29.3496 10.8198 29.3127C9.96124 29.2655 9.15665 29.0064 8.45734 28.5881C6.96915 27.698 5.96017 26.0834 5.93282 24.2363C5.88976 21.3495 8.22355 18.9959 11.1083 18.9959C11.6777 18.9959 12.2246 19.0889 12.7366 19.2577V14.9962V13.4643C12.1966 13.3843 11.647 13.3426 11.0912 13.3426C7.9337 13.3426 4.98058 14.6551 2.86964 17.0196C1.27413 18.8065 0.3171 21.0863 0.169444 23.4768C-0.0240131 26.6173 1.12511 29.6025 3.35362 31.8051C3.68107 32.1284 4.02491 32.4285 4.38448 32.7054C6.29513 34.1758 8.63097 34.9728 11.0912 34.9728C11.647 34.9728 12.1966 34.9318 12.7366 34.8518C15.0349 34.5114 17.1554 33.4594 18.8288 31.8051C20.8851 29.7727 22.0212 27.0746 22.0335 24.2028L22.0041 11.4497C22.9851 12.2064 24.0576 12.8326 25.2088 13.3186C26.9991 14.074 28.8975 14.4568 30.8512 14.4561V10.3129V8.77548C30.8526 8.77685 30.8361 8.77685 30.8348 8.77685Z" fill="white"/>
</svg>
