<svg width="35" height="25" viewBox="0 0 35 25" fill="none" xmlns="http://www.w3.org/2000/svg">
<path d="M34.1104 3.83008C33.7107 2.34405 32.5391 1.17263 31.0533 0.772483C28.3389 0.0297852 17.481 0.0297852 17.481 0.0297852C17.481 0.0297852 6.6236 0.0297852 3.9092 0.744325C2.45196 1.14404 1.25174 2.34426 0.852024 3.83008C0.137695 6.54427 0.137695 12.1731 0.137695 12.1731C0.137695 12.1731 0.137695 17.8304 0.852024 20.5162C1.25217 22.002 2.42338 23.1735 3.90941 23.5736C6.65219 24.3165 17.4814 24.3165 17.4814 24.3165C17.4814 24.3165 28.3389 24.3165 31.0533 23.602C32.5393 23.202 33.7107 22.0306 34.1109 20.5448C34.825 17.8304 34.825 12.2017 34.825 12.2017C34.825 12.2017 34.8536 6.54427 34.1104 3.83008ZM14.0241 17.3733V6.97299L23.0529 12.1731L14.0241 17.3733Z" fill="white"/>
</svg>
