<svg width="45" height="45" viewBox="0 0 45 45" fill="none" xmlns="http://www.w3.org/2000/svg">
<path d="M22.5 20.25C21.2625 20.25 20.25 21.2625 20.25 22.5C20.25 23.7374 21.2625 24.7499 22.5 24.7499C23.7374 24.7499 24.7499 23.7374 24.7499 22.5C24.7499 21.2625 23.7375 20.25 22.5 20.25Z" fill="white"/>
<path d="M22.4999 0C10.0688 0 0 10.0688 0 22.4999C0 34.9311 10.0688 44.9999 22.4999 44.9999C34.9311 44.9999 45 34.9312 45 22.4999C45 10.0687 34.9312 0 22.4999 0ZM22.4999 32.6249C16.9087 32.6249 12.375 28.0912 12.375 22.4999C12.375 16.9087 16.9087 12.375 22.4999 12.375C28.0912 12.375 32.6249 16.9087 32.6249 22.4999C32.6249 28.0912 28.0913 32.6249 22.4999 32.6249Z" fill="white"/>
</svg>
